<?xml version="1.0" standalone="no"?>
<!DOCTYPE svg PUBLIC "-//W3C//DTD SVG 20010904//EN"
 "http://www.w3.org/TR/2001/REC-SVG-20010904/DTD/svg10.dtd">
<svg version="1.0" xmlns="http://www.w3.org/2000/svg"
 width="1760.000000pt" height="1060.000000pt" viewBox="0 0 1760.000000 1060.000000"
 preserveAspectRatio="xMidYMid meet">
<metadata>
Created by potrace 1.16, written by Peter Selinger 2001-2019
</metadata>
<g transform="translate(0.000000,1060.000000) scale(0.100000,-0.100000)"
fill="#000000" stroke="none">
<path d="M5581 9748 c-25 -26 -28 -46 -36 -213 -26 -558 -122 -1290 -240
-1827 -241 -1094 -613 -2030 -1148 -2888 -258 -413 -539 -780 -893 -1166 -89
-97 -113 -129 -118 -160 -12 -63 -55 -239 -97 -390 -130 -478 -318 -958 -562
-1440 -53 -103 -94 -190 -93 -192 8 -7 527 384 556 419 3 3 37 32 75 64 231
193 608 563 819 805 759 866 1295 1837 1626 2943 336 1127 437 2400 290 3677
-30 266 -40 325 -61 359 -16 26 -25 31 -58 31 -28 0 -46 -6 -60 -22z"/>
<path d="M4184 9065 c-191 -41 -373 -184 -460 -360 -55 -113 -78 -220 -71
-345 9 -191 76 -340 209 -466 86 -82 152 -122 263 -160 72 -26 93 -28 215 -28
120 0 143 3 211 26 413 145 594 584 403 978 -54 110 -187 240 -304 297 -47 23
-117 48 -157 57 -86 19 -225 19 -309 1z"/>
<path d="M2894 7168 c-4 -7 -3 -8 5 -4 7 5 24 -5 41 -24 36 -39 37 -43 5 -28
-14 6 -25 17 -25 25 0 7 -4 13 -10 13 -19 0 -10 -19 21 -40 16 -12 33 -20 36
-16 13 12 40 -15 53 -55 11 -33 15 -38 21 -23 4 11 8 13 8 7 1 -7 1 -15 1 -18
1 -10 66 -69 74 -67 5 2 6 -4 2 -13 -3 -9 -2 -13 4 -10 6 3 10 0 10 -9 0 -8 6
-16 13 -19 8 -2 4 -12 -13 -30 -19 -19 -24 -34 -22 -61 3 -30 0 -36 -15 -36
-33 0 -66 57 -65 112 1 40 -2 48 -17 48 -20 0 -49 70 -37 89 8 12 6 13 -39 13
-76 1 -85 -13 -35 -50 17 -13 30 -29 30 -36 0 -19 -57 -39 -64 -23 -2 7 -5 4
-5 -5 -1 -9 -4 -25 -7 -35 -6 -16 -5 -16 9 2 16 19 16 19 17 -11 0 -40 -29
-42 -44 -2 -6 15 -14 28 -18 28 -4 0 -8 7 -8 15 0 8 -6 14 -12 13 -8 -2 -12 6
-10 21 3 19 0 22 -13 17 -13 -4 -15 -2 -10 13 3 11 1 22 -4 26 -7 4 -8 -1 -4
-12 5 -14 0 -13 -22 7 -17 15 -8 -1 23 -42 59 -76 116 -163 150 -228 14 -25
30 -52 36 -60 31 -42 176 -335 191 -388 4 -12 11 -20 16 -17 5 3 6 0 3 -8 -3
-8 7 -45 21 -83 37 -98 81 -269 106 -409 26 -153 36 -439 20 -585 -45 -395
-182 -756 -430 -1130 -99 -149 -96 -144 -80 -135 456 271 723 530 889 863 113
228 160 476 139 736 -23 280 -111 553 -272 841 -28 50 -55 93 -60 96 -5 3 -8
9 -7 13 2 11 -33 65 -40 61 -4 -2 -7 2 -7 9 0 7 -14 34 -32 59 -32 47 -48 61
-37 31 3 -9 2 -12 -5 -9 -6 4 -8 13 -5 21 7 19 -62 116 -76 107 -7 -3 -8 -1
-4 5 7 12 -24 56 -94 138 -128 148 -161 186 -214 241 -61 65 -70 71 -82 51z"/>
<path d="M10080 7030 c-20 -20 -20 -33 -20 -788 0 -678 2 -770 16 -790 13 -19
24 -22 88 -22 58 0 76 4 89 18 16 17 17 86 17 788 0 680 -2 772 -16 792 -13
19 -24 22 -85 22 -56 0 -73 -4 -89 -20z"/>
<path d="M14836 7034 c-14 -14 -16 -100 -16 -796 0 -732 1 -782 18 -794 22
-17 153 -19 170 -2 9 9 12 200 12 800 0 903 12 808 -104 808 -45 0 -69 -5 -80
-16z"/>
<path d="M16152 7030 c-17 -28 -18 -1570 0 -1588 7 -7 42 -12 86 -12 60 0 78
4 88 18 11 13 13 111 14 483 l0 465 53 17 c141 44 296 48 359 9 45 -28 75 -83
87 -162 6 -37 11 -226 11 -437 0 -428 -9 -393 104 -393 45 0 69 5 80 16 14 13
16 65 16 417 0 504 -7 546 -107 657 -64 72 -134 102 -251 108 -101 5 -214 -9
-298 -38 l-54 -19 0 222 c-1 169 -4 226 -14 240 -10 13 -28 17 -87 17 -63 0
-76 -3 -87 -20z"/>
<path d="M5906 7017 c-14 -10 -16 -25 -14 -87 l3 -75 223 -3 222 -2 0 -688 c0
-606 2 -690 16 -710 13 -20 24 -22 93 -22 54 0 82 4 90 13 8 10 12 215 13 708
l3 694 214 3 c138 1 219 6 228 13 19 17 18 133 -3 153 -14 14 -77 16 -543 16
-411 0 -531 -3 -545 -13z"/>
<path d="M11126 7014 c-14 -14 -16 -99 -16 -784 0 -685 2 -770 16 -784 11 -12
35 -16 88 -16 113 0 106 -27 106 393 l0 357 355 0 355 0 0 -358 c0 -420 -8
-392 108 -392 51 0 75 4 86 16 14 14 16 99 16 783 0 887 12 801 -108 801 -51
0 -75 -4 -86 -16 -14 -13 -16 -57 -16 -330 l0 -314 -355 0 -355 0 0 314 c0
314 0 315 -22 330 -31 22 -151 22 -172 0z"/>
<path d="M8370 6879 c-96 -16 -100 -22 -100 -149 l0 -110 -101 0 c-129 0 -139
-5 -139 -74 0 -34 5 -58 14 -65 8 -7 61 -17 118 -24 l103 -12 5 -425 5 -425
30 -60 c38 -76 82 -102 192 -114 105 -12 232 1 250 25 17 23 17 108 1 122 -7
6 -62 12 -121 14 -160 5 -147 -37 -147 454 l0 404 113 0 c142 0 157 8 157 83
0 31 -6 62 -16 75 -14 21 -22 22 -135 22 l-119 0 0 118 c0 103 -3 121 -18 135
-10 10 -23 16 -28 16 -5 -1 -34 -5 -64 -10z"/>
<path d="M15570 6879 c-96 -16 -100 -22 -100 -149 l0 -110 -101 0 c-129 0
-139 -5 -139 -74 0 -34 5 -58 14 -65 8 -7 61 -17 118 -24 l103 -12 5 -425 5
-425 28 -58 c38 -75 85 -104 193 -116 106 -12 233 1 251 25 17 23 17 108 1
122 -7 6 -61 12 -120 14 -87 2 -111 6 -125 21 -17 16 -18 50 -21 427 l-3 410
119 0 c143 0 152 6 152 92 0 82 -10 88 -153 88 l-117 0 0 118 c0 103 -3 121
-18 135 -10 10 -23 16 -28 16 -5 -1 -34 -5 -64 -10z"/>
<path d="M2509 6622 c12 -18 19 -32 14 -32 -4 -1 2 -9 13 -18 31 -26 56 -80
48 -104 -5 -16 -8 -18 -15 -7 -6 9 -9 10 -9 2 0 -21 21 -26 34 -8 11 15 13 14
26 -12 8 -15 17 -30 20 -33 3 -3 14 -18 24 -33 17 -28 17 -29 -2 -48 -20 -18
-20 -18 -31 11 -5 17 -15 30 -20 30 -14 0 -14 -37 -1 -45 17 -11 11 -41 -14
-64 -18 -17 -25 -19 -29 -9 -3 7 -6 -8 -6 -34 -1 -32 -5 -47 -13 -45 -6 1 -13
-7 -15 -18 -9 -46 -14 -51 -26 -30 -7 11 -20 43 -29 70 -9 28 -17 41 -17 30
-1 -26 40 -156 48 -151 3 2 7 -11 8 -29 1 -19 7 -44 14 -57 7 -13 14 -32 15
-43 1 -11 9 -48 18 -81 151 -581 35 -1245 -313 -1794 l-16 -25 30 19 c81 52
190 140 284 231 184 178 311 375 386 597 102 306 85 679 -47 1043 -43 119
-151 347 -192 408 -14 21 -26 40 -26 43 0 6 -46 77 -129 202 -19 30 -40 56
-45 60 -6 3 0 -9 13 -26z"/>
<path d="M7313 6615 c-80 -22 -131 -52 -190 -111 -111 -111 -149 -252 -140
-524 8 -240 37 -331 142 -435 93 -93 189 -129 347 -127 236 1 392 119 454 342
26 93 26 435 0 529 -46 168 -152 280 -303 322 -81 23 -233 25 -310 4z m242
-176 c65 -16 129 -77 156 -147 20 -49 23 -81 27 -231 6 -249 -13 -328 -97
-404 -50 -45 -106 -60 -201 -55 -94 6 -148 32 -190 92 -51 76 -62 142 -58 360
3 173 6 196 26 242 57 126 186 181 337 143z"/>
<path d="M9081 6616 c-69 -10 -98 -18 -108 -32 -18 -24 -17 -118 1 -133 11 -9
59 -9 193 -2 331 19 384 -8 391 -200 l4 -96 -158 -6 c-225 -9 -333 -37 -420
-110 -69 -59 -105 -198 -85 -332 28 -193 144 -287 351 -287 81 0 108 5 179 31
46 17 95 38 107 46 31 20 34 19 34 -11 0 -40 26 -53 101 -54 106 0 99 -32 99
449 0 340 -3 424 -16 482 -27 119 -107 210 -217 245 -68 23 -325 28 -456 10z
m479 -785 l0 -168 -57 -26 c-85 -37 -129 -47 -216 -47 -140 0 -177 36 -185
176 -6 112 17 166 84 195 54 24 140 36 277 38 l97 1 0 -169z"/>
<path d="M12828 6615 c-118 -32 -221 -113 -272 -213 -46 -90 -56 -158 -56
-377 0 -275 22 -361 121 -469 95 -104 202 -140 409 -138 158 1 347 26 373 49
12 12 17 32 17 73 0 82 -6 84 -137 70 -59 -7 -175 -10 -258 -8 -132 3 -155 6
-193 26 -80 43 -124 136 -126 267 l-1 60 367 3 367 2 11 36 c15 44 5 221 -17
304 -43 167 -147 273 -310 315 -69 18 -230 18 -295 0z m258 -180 c52 -15 100
-57 127 -111 16 -30 37 -135 37 -181 l0 -23 -275 0 -275 0 0 30 c0 92 49 210
103 250 65 49 187 64 283 35z"/>
<path d="M13850 6618 c-115 -14 -124 -21 -128 -94 -2 -44 1 -64 12 -73 11 -9
55 -10 193 -2 325 20 381 -9 391 -203 l5 -93 -164 -6 c-90 -4 -184 -11 -209
-16 -136 -28 -230 -92 -271 -183 -21 -46 -24 -68 -24 -174 0 -119 1 -122 35
-190 60 -117 152 -166 314 -166 90 -1 196 26 268 67 54 31 58 31 58 -3 0 -43
17 -52 92 -52 56 0 72 4 89 21 20 20 21 26 17 452 -4 408 -5 435 -25 488 -47
127 -117 190 -248 225 -57 16 -288 17 -405 2z m470 -787 l0 -169 -77 -33 c-66
-27 -93 -33 -178 -36 -166 -7 -205 30 -205 190 0 91 11 127 46 158 41 36 146
55 322 58 l92 1 0 -169z"/>
<path d="M5636 5585 c4 -8 1 -15 -5 -15 -6 0 -10 -3 -9 -7 2 -11 -30 -122 -47
-160 -8 -18 -12 -39 -9 -48 4 -8 1 -15 -6 -15 -6 0 -9 -4 -6 -9 4 -5 3 -11 -1
-13 -8 -3 -73 -186 -73 -204 0 -17 33 39 35 60 4 36 5 38 17 34 18 -6 20 -45
2 -52 -9 -4 -14 -13 -10 -21 3 -8 2 -14 -2 -12 -33 10 -108 -135 -92 -178 10
-25 1 -77 -11 -69 -5 3 -9 -2 -9 -10 0 -8 8 -20 18 -25 9 -6 13 -10 7 -10 -5
0 -18 6 -28 13 -17 13 -17 15 3 49 12 20 17 38 11 41 -7 5 -41 -63 -47 -94 -1
-8 -14 -38 -44 -106 -24 -54 -26 -63 -13 -80 14 -18 14 -18 10 6 -2 14 -2 19
0 11 4 -12 6 -12 15 0 8 11 9 10 4 -4 -3 -10 -1 -37 5 -60 12 -45 -2 -127 -22
-127 -6 0 -6 7 1 20 6 11 7 20 3 20 -13 0 -30 -14 -34 -28 -3 -8 -9 -5 -18 9
-11 19 -11 21 3 16 20 -8 33 18 18 36 -6 7 -8 24 -5 37 4 16 3 21 -5 16 -8 -5
-10 -2 -6 8 5 14 8 14 21 1 23 -23 25 -18 7 17 l-16 32 -24 -59 c-27 -65 -29
-79 -13 -69 7 4 10 1 7 -7 -5 -14 86 -219 101 -229 4 -3 8 -12 8 -20 0 -8 17
-54 38 -103 27 -60 41 -84 47 -75 6 9 7 6 3 -9 -5 -18 25 -106 80 -228 49
-111 217 -628 276 -850 l31 -120 82 -85 c205 -215 381 -430 572 -700 231 -327
405 -622 631 -1070 l64 -125 -6 195 c-15 575 -128 1277 -305 1895 -135 474
-364 1057 -576 1470 -66 130 -170 325 -189 357 -5 9 -37 63 -69 120 -71 123
-209 349 -243 398 -21 30 -24 31 -18 10 5 -19 4 -22 -4 -10 -6 8 -11 23 -11
32 0 19 -130 218 -142 218 -4 0 -5 -7 -2 -15z"/>
<path d="M7510 4915 c0 -188 1 -195 20 -195 19 0 20 7 20 195 0 188 -1 195
-20 195 -19 0 -20 -7 -20 -195z"/>
<path d="M7950 4915 c0 -188 1 -195 20 -195 19 0 20 7 20 100 0 94 2 103 25
125 29 30 46 31 68 7 14 -15 17 -40 17 -125 0 -100 1 -107 20 -107 19 0 20 7
20 110 0 79 -4 119 -15 140 -19 36 -62 47 -104 25 l-31 -16 0 66 c0 58 -2 65
-20 65 -19 0 -20 -7 -20 -195z"/>
<path d="M9020 4915 c0 -188 1 -195 20 -195 19 0 20 7 20 195 0 188 -1 195
-20 195 -19 0 -20 -7 -20 -195z"/>
<path d="M9460 4915 c0 -188 1 -195 20 -195 19 0 20 7 20 96 0 100 7 127 41
144 16 9 26 8 45 -5 23 -15 24 -20 24 -125 0 -103 1 -110 20 -110 19 0 20 7
20 106 0 125 -15 169 -61 179 -18 4 -40 1 -59 -8 l-30 -15 0 64 c0 57 -2 64
-20 64 -19 0 -20 -7 -20 -195z"/>
<path d="M11054 5096 c-3 -7 -4 -94 -2 -192 3 -161 5 -179 21 -182 15 -3 17 7
17 98 0 94 2 103 25 125 29 30 46 31 68 7 14 -15 17 -40 17 -125 0 -100 1
-107 20 -107 19 0 20 7 20 113 0 69 -5 121 -13 136 -18 36 -62 47 -103 27
l-34 -16 0 65 c0 52 -3 65 -15 65 -9 0 -18 -6 -21 -14z"/>
<path d="M12000 4915 c0 -162 2 -195 14 -195 8 0 16 6 19 13 3 9 7 9 20 -1 8
-7 30 -14 47 -14 110 -3 134 239 28 283 -23 9 -35 9 -56 -1 -15 -6 -29 -10
-32 -8 -2 1 -3 29 -2 61 3 52 1 57 -18 57 -19 0 -20 -5 -20 -195z m135 31 c35
-53 26 -164 -16 -186 -60 -33 -111 69 -79 157 21 55 69 70 95 29z"/>
<path d="M12710 4914 c0 -181 1 -195 18 -192 15 3 17 22 20 196 2 187 2 192
-18 192 -19 0 -20 -6 -20 -196z"/>
<path d="M14930 5091 c-5 -11 -10 -36 -10 -55 0 -29 -4 -36 -20 -36 -13 0 -20
-7 -20 -20 0 -13 7 -20 20 -20 19 0 20 -7 20 -120 0 -114 1 -120 21 -120 19 0
20 5 18 117 -1 111 0 117 20 125 27 10 28 38 0 38 -17 0 -20 5 -17 33 2 24 8
33 26 35 14 2 22 10 22 23 0 27 -65 27 -80 0z"/>
<path d="M15370 4915 c0 -188 1 -195 20 -195 19 0 20 7 20 103 0 95 2 105 23
125 28 27 49 28 70 4 14 -15 17 -40 17 -125 0 -102 1 -107 21 -107 20 0 21 4
18 121 -4 118 -5 121 -32 145 -32 28 -51 30 -89 10 l-28 -15 0 65 c0 57 -2 64
-20 64 -19 0 -20 -7 -20 -195z"/>
<path d="M6948 5086 c-12 -9 -18 -27 -18 -50 0 -25 -4 -36 -15 -36 -8 0 -15
-7 -15 -15 0 -9 7 -18 15 -21 12 -5 15 -26 15 -100 0 -115 11 -144 56 -144 27
0 31 3 27 20 -3 10 -14 22 -24 25 -17 6 -19 17 -19 101 0 87 1 94 20 94 13 0
20 7 20 20 0 13 -7 20 -19 20 -17 0 -20 8 -23 49 -3 45 -5 48 -20 37z"/>
<path d="M9258 5086 c-12 -9 -18 -27 -18 -50 0 -25 -4 -36 -15 -36 -8 0 -15
-9 -15 -20 0 -11 7 -20 15 -20 12 0 15 -19 15 -108 0 -117 6 -132 52 -132 21
0 28 5 28 19 0 10 -9 21 -20 24 -18 5 -20 14 -20 106 0 94 1 101 20 101 11 0
20 7 20 15 0 8 -9 15 -19 15 -17 0 -20 8 -23 49 -3 45 -5 48 -20 37z"/>
<path d="M10848 5086 c-12 -9 -18 -27 -18 -50 0 -25 -4 -36 -15 -36 -8 0 -15
-9 -15 -20 0 -11 7 -20 15 -20 12 0 15 -18 15 -106 0 -115 8 -134 54 -134 32
0 37 35 6 43 -18 5 -20 14 -20 100 0 86 2 95 20 100 26 7 26 27 0 34 -15 4
-20 15 -22 53 -3 44 -5 47 -20 36z"/>
<path d="M6350 5071 c-5 -11 -10 -31 -10 -45 0 -14 -4 -26 -10 -26 -5 0 -10
-9 -10 -20 0 -11 4 -20 9 -20 4 0 10 -47 13 -104 3 -65 10 -111 18 -120 14
-17 55 -22 65 -7 6 10 -21 41 -36 41 -5 0 -9 43 -9 95 0 88 1 95 20 95 13 0
20 7 20 20 0 13 -7 20 -20 20 -17 0 -20 7 -20 45 0 47 -12 58 -30 26z"/>
<path d="M6624 5000 c-79 -32 -97 -196 -29 -260 33 -31 94 -33 126 -5 107 96
27 315 -97 265z m66 -40 c54 -29 50 -179 -6 -200 -59 -23 -103 45 -89 132 11
64 50 92 95 68z"/>
<path d="M7205 5001 c-25 -11 -40 -29 -49 -58 -10 -32 20 -31 46 2 33 43 98
27 98 -24 0 -27 -3 -30 -52 -36 -88 -12 -132 -76 -92 -133 23 -33 60 -45 100
-32 19 7 34 16 34 21 0 5 5 9 10 9 6 0 10 -7 10 -15 0 -8 8 -15 18 -15 15 0
17 11 14 122 -3 101 -7 126 -21 141 -21 21 -86 31 -116 18z"/>
<path d="M8361 4997 c-40 -20 -63 -70 -63 -136 0 -75 17 -111 64 -134 32 -16
43 -17 73 -7 56 18 92 90 45 90 -11 0 -20 -6 -20 -14 0 -17 -37 -46 -58 -46
-22 0 -62 48 -62 75 0 25 1 25 85 25 95 0 95 0 75 72 -12 42 -61 88 -93 88
-12 0 -33 -6 -46 -13z"/>
<path d="M8714 5000 c-24 -9 -54 -47 -54 -67 0 -21 38 -15 45 6 13 42 90 39
101 -4 7 -29 -1 -45 -24 -45 -31 0 -91 -21 -107 -36 -41 -41 -25 -116 30 -134
33 -11 77 -2 90 19 9 16 25 13 25 -4 0 -9 9 -15 21 -15 17 0 20 4 15 23 -3 12
-6 66 -6 120 0 91 -2 100 -25 122 -25 26 -70 32 -111 15z"/>
<path d="M10293 5000 c-44 -18 -59 -93 -24 -124 10 -9 41 -25 67 -35 39 -15
50 -24 52 -44 6 -52 -77 -62 -100 -12 -6 14 -19 25 -30 25 -22 0 -22 -3 -2
-45 40 -84 174 -57 174 35 0 44 -19 64 -86 89 -39 15 -50 24 -52 45 -3 20 2
27 22 32 33 8 61 -2 72 -26 6 -14 13 -17 23 -10 12 7 13 13 3 34 -18 40 -70
55 -119 36z"/>
<path d="M11454 4992 c-43 -27 -57 -68 -52 -150 2 -50 9 -73 23 -89 31 -33 72
-46 111 -33 52 18 88 90 44 90 -11 0 -20 -6 -20 -14 0 -17 -37 -46 -58 -46
-22 0 -62 48 -62 75 0 25 1 25 85 25 94 0 95 0 75 71 -20 72 -89 106 -146 71z"/>
<path d="M12404 5000 c-24 -9 -54 -47 -54 -67 0 -21 37 -15 43 7 6 24 51 36
83 21 20 -9 25 -17 22 -38 -3 -25 -9 -29 -58 -40 -37 -8 -62 -21 -77 -38 -40
-46 -27 -105 28 -124 29 -10 49 -5 112 27 4 2 7 -3 7 -12 0 -9 8 -16 18 -16
15 0 17 11 14 112 -2 61 -8 122 -13 135 -14 37 -75 53 -125 33z"/>
<path d="M12974 5004 c-26 -6 -49 -30 -58 -61 -10 -32 20 -31 46 2 33 43 98
27 98 -24 0 -27 -3 -30 -51 -36 -67 -9 -103 -40 -103 -89 0 -48 31 -80 78 -80
19 0 43 8 54 17 23 21 32 22 32 2 0 -8 8 -15 18 -15 17 0 18 10 14 123 -3 98
-7 126 -21 140 -18 18 -70 28 -107 21z"/>
<path d="M13337 4990 c-22 -18 -27 -19 -27 -6 0 9 -9 16 -20 16 -20 0 -20 -5
-18 -137 3 -122 5 -138 21 -141 15 -3 17 7 17 98 0 95 2 103 25 126 26 26 60
26 77 0 4 -6 8 -59 8 -118 0 -103 1 -108 21 -108 20 0 21 4 17 125 -3 136 -9
150 -63 161 -22 4 -38 0 -58 -16z"/>
<path d="M13674 4991 c-37 -22 -54 -65 -54 -133 0 -71 22 -116 66 -134 58 -24
108 4 129 74 5 18 2 22 -14 22 -14 0 -23 -9 -27 -25 -6 -25 -31 -45 -54 -45
-6 0 -22 11 -35 25 -21 20 -25 34 -25 84 0 48 5 65 23 87 19 22 29 26 51 20
16 -4 31 -17 36 -32 11 -28 33 -28 38 -1 5 23 -51 77 -80 77 -13 0 -37 -9 -54
-19z"/>
<path d="M14012 4996 c-41 -22 -62 -66 -62 -129 0 -109 54 -168 134 -146 33 9
76 55 76 82 0 17 -34 5 -60 -23 -15 -16 -35 -30 -43 -30 -25 0 -57 33 -63 68
l-6 32 86 0 c85 0 86 0 86 25 0 42 -29 100 -59 118 -34 20 -58 21 -89 3z"/>
<path d="M14605 5001 c-54 -23 -82 -106 -64 -189 13 -61 45 -94 93 -95 50 -1
83 20 100 65 51 125 -29 260 -129 219z m75 -49 c49 -40 34 -180 -21 -197 -73
-23 -117 127 -56 193 25 27 47 28 77 4z"/>
<path d="M16160 5003 c-8 -3 -21 -12 -27 -21 -12 -14 -13 -14 -13 1 0 10 -8
17 -18 17 -17 0 -18 -12 -21 -140 -2 -133 -1 -140 18 -140 18 0 19 8 23 104 2
85 6 108 22 125 23 25 39 26 60 5 13 -12 16 -39 16 -125 0 -102 1 -109 20
-109 19 0 20 7 20 105 0 92 3 108 20 125 27 27 46 25 66 -4 12 -20 15 -46 13
-123 -3 -95 -3 -98 19 -101 21 -3 22 -1 22 95 0 122 -12 171 -46 183 -33 13
-72 3 -85 -22 -10 -19 -11 -18 -34 6 -23 25 -44 30 -75 19z"/>
<path d="M16620 5003 c-50 -20 -81 -83 -40 -83 11 0 20 7 20 15 0 34 67 46 94
16 31 -34 17 -54 -49 -67 -68 -14 -95 -39 -95 -89 0 -66 60 -98 124 -66 31 16
38 17 43 5 3 -8 14 -14 25 -14 14 0 18 5 14 16 -3 9 -6 62 -6 119 0 122 -11
144 -75 150 -22 3 -47 2 -55 -2z"/>
<path d="M17000 5003 c-8 -3 -23 -12 -32 -21 -16 -14 -18 -13 -18 1 0 10 -7
17 -15 17 -13 0 -15 -22 -15 -140 0 -133 1 -140 20 -140 19 0 20 7 20 105 0
93 2 107 21 126 20 20 51 19 74 -3 6 -5 12 -58 13 -119 3 -96 6 -110 20 -107
15 3 17 19 17 122 -1 117 -1 119 -28 142 -28 24 -47 28 -77 17z"/>
<path d="M15730 4880 c0 -115 1 -122 25 -145 28 -29 48 -31 90 -9 19 10 31 11
33 5 2 -6 10 -11 18 -11 11 0 14 26 14 140 0 133 -1 140 -20 140 -19 0 -20 -7
-20 -103 0 -114 -10 -137 -62 -137 -36 0 -48 40 -48 151 0 72 -3 89 -15 89
-13 0 -15 -20 -15 -120z"/>
</g>
</svg>
